<?xml version="1.0" standalone="no"?>
<!DOCTYPE svg PUBLIC "-//W3C//DTD SVG 20010904//EN"
 "http://www.w3.org/TR/2001/REC-SVG-20010904/DTD/svg10.dtd">
<svg version="1.0" xmlns="http://www.w3.org/2000/svg"
 width="128.000000pt" height="128.000000pt" viewBox="0 0 128.000000 128.000000"
 preserveAspectRatio="xMidYMid meet">

<g transform="translate(0.000000,128.000000) scale(0.100000,-0.100000)"
fill="#000000" stroke="none">
<path d="M0 640 l0 -640 640 0 640 0 0 640 0 640 -640 0 -640 0 0 -640z m533
249 c38 -10 48 -37 11 -31 -92 17 -94 17 -94 -19 0 -30 31 -109 58 -148 7 -10
23 0 68 44 80 77 185 135 245 135 25 0 50 -5 57 -12 17 -17 15 -79 -4 -124
-19 -47 -20 -48 -33 -39 -8 4 -8 13 1 28 6 12 14 36 19 54 6 29 5 33 -15 33
-50 -1 -177 -82 -251 -160 l-30 -32 57 -53 c62 -58 166 -115 210 -115 25 0 28
4 28 30 0 17 -7 47 -15 66 -14 35 -13 54 4 54 13 0 41 -83 41 -121 0 -65 -57
-101 -127 -79 -72 22 -192 98 -216 137 -16 26 -38 12 -62 -39 -36 -77 -34 -90
13 -86 52 4 56 -15 5 -26 -60 -12 -90 -2 -98 34 -9 42 2 87 37 144 29 48 30
51 14 75 -75 114 -87 230 -26 254 24 9 62 8 103 -4z m100 -41 c7 -21 -4 -38
-23 -38 -23 0 -34 16 -26 35 7 18 43 20 49 3z m191 -174 c9 -3 16 -12 16 -18
0 -18 -21 -35 -36 -29 -15 5 -19 35 -7 46 8 8 8 8 27 1z m-219 -235 c0 -28
-29 -38 -39 -13 -7 19 11 47 28 41 6 -2 11 -14 11 -28z"/>
</g>
</svg>
